# xmcd CD database file generated by Grip 3.2.0
# 
# Track frame offsets:
#       150
#       18780
#       36295
#       54925
# 
# Disc length: 961 seconds
# 
# Revision: 4
# Processed by: cddbd v1.5.2PL0 Copyright (c) Steve Scherf et al.
# Submitted via: Grip 3.2.0
# 
DISCID=2403bf04
DTITLE=アンディ・ヒノミヤ starring 諏訪部順一 - Realize Mis
DTITLE=sion
DYEAR=2013
DGENRE=Anime
TTITLE0=Realize Mission
TTITLE1=兵部京介＆アンディ・ヒノミヤ starring 遊佐浩二＆
TTITLE1=諏訪部順一 - DARKNESS NIGHT Hinomiya arrange
TTITLE2=Realize Mission (Instrumental)
TTITLE3=DARKNESS NIGHT Hinomiya arrange (Instrumental)
EXTD=YEAR: 1996
EXTT0=
EXTT1=
EXTT2=
EXTT3=
PLAYORDER=
